<?xml version="1.0" encoding="utf-8"?>
<!-- Generator: Adobe Illustrator 16.0.0, SVG Export Plug-In . SVG Version: 6.00 Build 0)  -->
<!DOCTYPE svg PUBLIC "-//W3C//DTD SVG 1.1//EN" "http://www.w3.org/Graphics/SVG/1.1/DTD/svg11.dtd">
<svg version="1.1" id="Layer_1" xmlns="http://www.w3.org/2000/svg" xmlns:xlink="http://www.w3.org/1999/xlink" x="0px" y="0px"
	 width="254.6px" height="388.1px" viewBox="177.5 200.9 254.6 388.1" enable-background="new 177.5 200.9 254.6 388.1"
	 xml:space="preserve">
<path fill="#FFCD0C" d="M305,200.9c68.3,0,123.6,55.3,123.6,123.6S373.3,448.1,305,448.1s-123.6-55.3-123.6-123.6
	S236.7,200.9,305,200.9"/>
<path fill="#525556" d="M177.5,521.1c0-17,3.4-30.199,10.1-39.5c6.8-9.3,16.2-14,28.4-14c12.1,0,21.4,4.7,28.2,14
	c6.7,9.301,10.1,22.5,10.1,39.5c0,16.9-3.3,30.101-10,39.4c-6.6,9.3-16.1,14-28.3,14s-21.7-4.7-28.4-14
	C180.9,551.1,177.5,538,177.5,521.1 M206.6,520.4c0,10.699,0.7,18,2.1,21.899c1.4,3.9,3.9,5.9,7.4,5.9c3.4,0,5.9-1.9,7.3-5.8
	c1.4-3.9,2.1-11.2,2.1-22c0-10.7-0.7-18.101-2.1-22c-1.4-3.9-3.8-5.9-7.3-5.9s-6,2-7.4,5.9C207.2,502.3,206.6,509.7,206.6,520.4z"/>
<path fill="#525556" d="M341.4,512.4l0.3,9.199c0,17.801-3,31.101-8.9,39.7c-5.899,8.7-15,13-27.1,13c-12.2,0-21.7-4.7-28.4-14
	c-6.7-9.3-10.1-22.399-10.1-39.399c0-17.101,3.4-30.301,10.1-39.5c6.8-9.301,16.4-13.9,28.9-13.9c8.8,0,16,2,21.5,6.1
	c5.5,4,9.7,10.301,12.6,19l-24.899,8.5c-1.101-3.6-2.5-6.1-3.9-7.699c-1.5-1.601-3.4-2.4-5.7-2.4c-3.5,0-5.9,2-7.4,6.1
	c-1.5,4.101-2.2,11.601-2.2,22.5c0,10.9,0.7,18.301,2.1,22.4c1.4,4,3.9,6.1,7.4,6.1c2.6,0,4.6-1.1,5.899-3.399
	c1.301-2.3,2-5.601,2-10v-1.4H305V512.4H341.4L341.4,512.4z"/>
<path fill="#525556" d="M408.2,589l-11-14.7H395.6h-1.5c-12.199,0-21.8-4.6-28.6-13.899c-6.8-9.301-10.2-22.4-10.2-39.4
	s3.4-30.1,10.101-39.4c6.8-9.3,16.199-14,28.399-14c12.101,0,21.4,4.7,28.2,14c6.7,9.301,10.1,22.5,10.1,39.5
	c0,9.801-1.1,18.2-3.399,25.5c-2.3,7.2-5.7,13.301-10.3,18.301L431.1,578L408.2,589z M384.4,520.4c0,10.5,0.699,17.8,2.1,21.8
	s3.9,6,7.4,6c3.399,0,5.899-1.9,7.3-5.8c1.399-3.9,2.1-11.2,2.1-22c0-10.7-0.7-18.101-2.1-22c-1.4-3.9-3.8-5.9-7.3-5.9s-6,2-7.4,5.9
	C385.1,502.3,384.4,509.7,384.4,520.4z"/>
</svg>
