<svg xmlns="http://www.w3.org/2000/svg" xmlns:xlink="http://www.w3.org/1999/xlink" id="Layer_2" x="0" y="0" version="1.1" viewBox="0 0 1080 1080" xml:space="preserve" style="enable-background:new 0 0 1080 1080"><style type="text/css">.st0{fill:#e9f9ff}.st1{fill:#cef}.st2{fill:#b0e1ff}.st3{fill:#f2f2f2}.st4{fill:#2a94f4}.st5{fill:#0b4870}.st6{fill:#ffcea6}.st7{fill:#ffbe55}.st8{fill:#ffe3ca}</style><g><path d="M965.6,978.2C888,864.5,833.9,734.7,807.8,599.6c-3.9-20.1-10.7-44.3-30.6-49.1c-13.4-3.2-26.8,4.3-37.9,12.5 c-44.2,32.7-76.3,81.5-88.9,135c-5.4,23.1-11.6,52-34.7,57.8c-16.1,4.1-32.2-6.2-43.9-18c-31.7-32-46.9-76.4-61-119.2 c-27.3-82.4-54.6-164.9-81.8-247.3c-3.8-11.6-9-24.6-20.4-28.8c-9.8-3.7-20.7,0.6-29.9,5.5c-41.8,22.4-73.7,60.3-96.5,101.9 c-22.9,41.6-37.5,87-52,132.2c-41.3,128.5-82.6,256.9-123.9,385.4L965.6,978.2z" class="st0"/></g><g><g><path d="M982.6,673.4c29.6,16.1,49.7,47.4,49.7,83.5c0,52.4-42.5,94.9-94.9,94.9c-40.4,0-75-25.3-88.6-60.9 L982.6,673.4z" class="st1"/></g><g><circle cx="835.8" cy="641.2" r="150.3" class="st2"/></g><g><g><path d="M835.8,938.1c-1.9,0-3.4-1.5-3.4-3.4V641.2c0-1.9,1.5-3.4,3.4-3.4c1.9,0,3.4,1.5,3.4,3.4v293.5 C839.2,936.6,837.7,938.1,835.8,938.1z" class="st1"/></g><g><path d="M835.8,722.4c-0.9,0-1.8-0.3-2.4-1l-42.1-42.1c-1.3-1.3-1.3-3.5,0-4.9c1.3-1.3,3.5-1.3,4.9,0l42.1,42.1 c1.3,1.3,1.3,3.5,0,4.9C837.6,722.1,836.7,722.4,835.8,722.4z" class="st1"/></g><g><path d="M835.8,761.5c-0.9,0-1.8-0.3-2.4-1l-42.1-42.1c-1.3-1.3-1.3-3.5,0-4.9c1.3-1.3,3.5-1.3,4.9,0l42.1,42.1 c1.3,1.3,1.3,3.5,0,4.9C837.6,761.2,836.7,761.5,835.8,761.5z" class="st1"/></g><g><path d="M936.8,938.1c-1.7-0.3-2.8-1.9-2.8-3.6V780.7c0-1.9,1.4-3.5,3.3-3.6c2-0.1,3.6,1.5,3.6,3.4v154.2 C940.8,936.8,938.9,938.4,936.8,938.1z" class="st1"/></g><g><path d="M937.4,803c-0.9,0-1.8-0.3-2.4-1c-1.3-1.3-1.3-3.5,0-4.9l30.3-30.3c1.3-1.3,3.5-1.3,4.9,0 c1.3,1.3,1.3,3.5,0,4.9L939.8,802C939.1,802.7,938.3,803,937.4,803z" class="st1"/></g><g><path d="M937.4,831.2c-0.9,0-1.8-0.3-2.4-1c-1.3-1.3-1.3-3.5,0-4.9l30.3-30.3c1.3-1.3,3.5-1.3,4.9,0 c1.3,1.3,1.3,3.5,0,4.9l-30.3,30.3C939.1,830.8,938.3,831.2,937.4,831.2z" class="st1"/></g></g></g><g><g><circle cx="185.4" cy="641.2" r="150.3" class="st2"/></g><g><g><path d="M185.4,938.1c-1.9,0-3.4-1.5-3.4-3.4V641.2c0-1.9,1.5-3.4,3.4-3.4c1.9,0,3.4,1.5,3.4,3.4v293.5 C188.9,936.6,187.3,938.1,185.4,938.1z" class="st1"/></g><g><path d="M185.4,722.4c-0.9,0-1.8-0.3-2.4-1l-42.1-42.1c-1.3-1.3-1.3-3.5,0-4.9c1.3-1.3,3.5-1.3,4.9,0l42.1,42.1 c1.3,1.3,1.3,3.5,0,4.9C187.2,722.1,186.3,722.4,185.4,722.4z" class="st1"/></g><g><path d="M185.4,761.5c-0.9,0-1.8-0.3-2.4-1l-42.1-42.1c-1.3-1.3-1.3-3.5,0-4.9c1.3-1.3,3.5-1.3,4.9,0l42.1,42.1 c1.3,1.3,1.3,3.5,0,4.9C187.2,761.2,186.3,761.5,185.4,761.5z" class="st1"/></g></g></g><path d="M1012.6,1002H67.4c-5.8,0-10.5-4.7-10.5-10.5v-48.2c0-5.8,4.7-10.5,10.5-10.5h945.3c5.8,0,10.5,4.7,10.5,10.5	v48.2C1023.2,997.3,1018.4,1002,1012.6,1002z" class="st3"/><g><path d="M709.2,948c9.2,6.9,15.1,12.7,16.5,14.1c1.9,1.8,1,9.9-3.3,15.6c-0.7,1-1.6,1.9-2.5,2.7 c-20.1,7.8-53.5-15.1-55.4-16.4c-1.9-1.3-30.2-8-33.4-12.2c-2.9-3.8,1.5-6,2.6-12c0.1-0.6,0.2-1.2,0.2-1.9 c0.3-7.4,5.8-23.8,10.5-25.2l15.6,4.4l1,0.3c0,0,8.7-3.4,12.1-4c3.5-0.5,16.9,12.5,23.1,22.4C698.7,939.6,703.7,944,709.2,948z" class="st4"/><path d="M709.2,948c-5.6,0.4-11.7-1.9-13.6-2.8c-2.2-1.1-6.5-9.1-8.8-10.5c-2.2-1.5-27.5-7.9-28.3-12.5 c-0.2-1.1,0.5-2.9,1.6-5l1,0.3c0,0,8.7-3.4,12.1-4c3.5-0.5,16.9,12.5,23.1,22.4C698.7,939.6,703.7,944,709.2,948z" class="st5"/><path d="M722.5,977.7c-0.7,1-1.6,1.9-2.5,2.7c-20.1,7.8-53.5-15.1-55.4-16.4c-1.9-1.3-30.2-8-33.4-12.2 c-2.9-3.8,1.5-6,2.6-12c7.1,1.4,11.9,1.9,18.2,5.2C659.9,949.2,701.2,981.3,722.5,977.7z" class="st2"/><path d="M647.5,680.8c17.5,24.3,53,106.8,50.9,111.8s-27.6,135.2-27.6,135.2s-27.3,3.4-27.7-7.4 c-0.4-10.8,6.6-102.2,19.3-118.5c-8.6-10.3-60.5-96.9-60.5-96.9L647.5,680.8z" class="st6"/><path d="M356.1,845.9c1.3,12.9,1.2,22.1,1.2,24.3c0,3-5.8,7.2-12.2,6.7c-1.1-0.1-2.2-0.3-3.3-0.7 c-17.7-13.8-23.7-59.4-24-62c-0.4-2.6-13.7-33.3-13-38.9c0.7-5.1,4.9-2.3,9.5-5.1c0.5-0.3,0.9-0.6,1.4-1c5-4.3,19.1-9.5,22.9-5.9 l6.9,17.4l0.4,1.1c0,0,7.7,5.9,10.2,8.8c2.5,2.9,2.4,23.6-0.1,35.7C355.1,830.9,355.4,838.3,356.1,845.9z" class="st4"/><path d="M356.1,845.9c-3.7-5-6.1-12.1-6.7-14.4c-0.7-2.7,1.8-11.8,1.4-14.8c-0.5-3-12.1-30.7-9.6-34.2 c0.6-0.9,2.2-1.4,4.2-1.7l0.4,1.1c0,0,7.7,5.9,10.2,8.8c2.5,2.9,2.4,23.6-0.1,35.7C355.1,830.9,355.4,838.3,356.1,845.9z" class="st5"/><path d="M531,670.8c-14.8,17.7-51.4,59.4-61.1,75.9c-27.1,7.4-117.7,6.2-134.3,18.8c-3.1,19.2,7.9,22.9,7.9,22.9 l122.3,7c9.7-1.1,25.6-5.7,33.2-13.1c17-16.5,82-81.5,81.9-89.4C580.8,681.9,531,670.8,531,670.8z" class="st6"/><path d="M536.9,623.2c-13.6,18.9-49.2,88.4-49.2,88.4l62.3,26.8l49.6-57.6L536.9,623.2z" class="st7"/><path d="M629.2,634.5c10.1,14.7,37.1,66.5,37.1,66.5l-63.9,37.3c0,0-79-77-70.1-108.7 C560.8,613.9,618.5,616.8,629.2,634.5z" class="st7"/><path d="M598.3,532c26.4,0.6,47.1-16.3,55.4-23.7c14,4.2,17.9,3.6,17.9,3.6s-28.3,45.4-57.6,45 C584.8,556.5,598.3,532,598.3,532z" class="st6"/><path d="M634.2,638.1c0,0-19.1-17.1-42.7-10.1c-23.7,7-66.8,0-66.8,0l7.6-46.3l3.5-21.5l12.5-76.4l-20.8,9 c0,0-20-37.8-20.4-39.1c50-45.5,80.4-36.5,90.8-34.3c0,0,0.9,2.9,24.2,14.4C645.3,445.2,634.2,638.1,634.2,638.1z" class="st4"/><polygon points="619.8 397.1 619.8 445.7 590.3 425 592 393.8 608.5 376.3" class="st6"/><path d="M578.7,339.8c-5.2,5-6.4,20-6.7,27.1c-0.1,2.5,0.4,4.9,1.5,7.2c4.7,9.5,17.8,33.9,19.5,35.6 c3-4,8.6-8.3,8.6-8.3l2.4-17.8l1-29.1L578.7,339.8z" class="st5"/><path d="M648.2,383.6c0,17.5,0,31.1-13,31.1c-25.1,2-37.1-8-37.1-31.6c0-17.5-16.1-31.6,23.6-31.6 C634.6,351.5,648.2,366.1,648.2,383.6z" class="st8"/><path d="M605,358.5c11,3,37.2-0.2,41.2-4.8c3-3.5-1.8-22.1-9.8-22.1c-8,0-19.3-5.1-19.3-5.1s-0.3,3.9,1.7,4.9 c2,1-36.8-0.9-41.8,11.2C576.9,342.4,570.9,356.5,605,358.5z" class="st5"/><path d="M613.1,353.5c-2.4,11-4.8,27.1-18,25.1c-13.2-2-2.4-30.1-2.4-30.1L613.1,353.5z" class="st5"/><ellipse cx="595.5" cy="381.2" class="st8" rx="7.3" ry="11.1" transform="matrix(0.9555 -0.2949 0.2949 0.9555 -85.9281 192.5902)"/><path d="M548.8,578.9c0,0-3,2.5-10.1,11.1c-1.5-1.3-3-2.7-4.5-4c-80.7-72.2-49.4-103.1-22.7-123.8 c3.7,7.4,10.6,19.3,14.3,27.3c-24.3,16.3-3.1,54.1,11.8,74.9C543.8,573.1,548.8,578.9,548.8,578.9z" class="st6"/><path d="M538.5,587c-0.5,0.9-0.9,1.9-1.3,2.8c-1.4,3.4-0.4,7.4,2.4,9.8l8.3,7.1l19.1-9.4l0.5-6.6c0,0,4,2.9,7.3,1.5 c-4.9-5.3-9.1-14.3-16-16.6c-3.7-1.3-7.1-2.1-11.8,1.7C536.9,583.4,538.5,587,538.5,587z" class="st6"/><path d="M653,512.8c-1-3.5-3.1-9.6-3.1-9.6s8.1-22.2,7.7-25.1c4.8,2.3,4.6,9.1,4.6,9.1l6.9-9.3l16.8,22.8 c0,0-8.5,20.6-21,19.1C652.4,518.4,653,512.8,653,512.8z" class="st6"/><path d="M345.1,876.9c-1.1-0.1-2.2-0.3-3.3-0.7c-17.7-13.8-23.7-59.4-24-62c-0.4-2.6-13.7-33.3-13-38.9 c0.7-5.1,4.9-2.3,9.5-5.1c3.6,7.5,6.2,12.3,8,20.3C324.5,800.6,329.5,859.3,345.1,876.9z" class="st2"/></g><circle cx="871.6" cy="222.5" r="81.3" class="st7"/><g><path d="M403.3,158.4c-55.6-34.2-118.9-55.7-183.8-62.5c-3.6-0.4-7.5-0.6-10.6,1.2c-6,3.7-5,13.2-0.3,18.5 c4.7,5.2,11.7,7.6,17.8,11.1c6.1,3.5,12,9.3,11.5,16.3c-50.5-15.4-104.1-20.5-156.6-14.7c-5.9,0.7-12.1,1.5-17.1,4.7 s-8.6,9.5-6.9,15.2c2.7,9.1,14.9,10.2,24.3,9.6L403.3,158.4z" class="st2"/></g><g><path d="M786.4,273.4c-27.6-30.7-65.9-51.5-106.7-57.7c3.9,9.7,10.1,18.5,18,25.4c-88.7,1.1-173.1-53.3-261.2-42.8 c-5.8,0.7-12.2,2.1-15.3,7c-5.4,8.6,3.8,19.2,13,23.5c9.2,4.3,20.6,7.8,23.9,17.4c-18.7,0.9-37.3,1.8-56,2.7 c-3.2,0.2-6.7,0.4-9.1,2.5c-4.6,4-2.1,12.2,3.2,15.3s11.8,2.6,17.9,2L786.4,273.4z" class="st0"/></g><path d="M245.8,362.3c-1.9-2.2-3.8-4.5-6-6.4c-2.1-2-4.5-3.6-7-5l-1.9-1l-2-0.8c-0.6-0.3-1.3-0.5-2-0.7l-1-0.3	c-0.3-0.1-0.7-0.2-1-0.3c-0.7-0.2-1.4-0.4-2.1-0.5l-2.1-0.4l-2.1-0.2c-0.7-0.1-1.4-0.1-2.1-0.1c-0.7-0.1-1.4,0-2.1,0l-1.1,0	c-0.4,0-0.7,0.1-1.1,0.1c-1.4,0.1-2.8,0.2-4.2,0.4c-2.8,0.4-5.6,1.1-8.3,1.9c-2.7,0.8-5.4,1.8-8,3c-1.3,0.6-2.6,1.2-3.9,1.9	c-1.2,0.7-2.5,1.4-3.6,2.1l-2.1,1.3l-1-2.3c-0.2-0.5-0.6-1.1-0.9-1.7c-0.3-0.6-0.7-1.1-1-1.7c-0.7-1.1-1.5-2.2-2.4-3.2	c-1.7-2.1-3.7-3.9-5.8-5.4c-2.1-1.5-4.5-2.8-7-3.6c-2.5-0.8-5.2-1.2-7.9-1.3c-1.3-0.1-2.7,0.1-4,0.2c-1.3,0.2-2.7,0.4-4,0.7	c-2.7,0.5-5.3,1.5-7.9,2.5c-5.2,2.1-10.1,4.9-15,8c4.3-3.8,8.9-7.2,14.1-9.9c2.6-1.3,5.3-2.5,8.1-3.3c1.4-0.5,2.9-0.7,4.3-1	c1.5-0.2,3-0.4,4.5-0.4c3-0.1,6.1,0.2,9,1c2.9,0.8,5.7,2.2,8.2,3.8c2.5,1.7,4.8,3.7,6.8,6c1,1.1,1.9,2.4,2.7,3.6	c0.4,0.6,0.8,1.3,1.2,1.9c0.4,0.7,0.7,1.3,1.1,2.1l-3.2-0.9c1.4-0.9,2.7-1.6,4-2.3c1.4-0.7,2.7-1.3,4.1-1.9c2.8-1.2,5.6-2.2,8.6-3.1	c2.9-0.8,5.9-1.4,8.9-1.7c1.5-0.2,3-0.3,4.6-0.3c0.4,0,0.8,0,1.1,0l1.1,0c0.8,0,1.5,0.1,2.3,0.1c6.1,0.5,12.1,2.6,17.1,6	c2.5,1.7,4.8,3.7,6.7,6c1,1.1,1.9,2.3,2.8,3.5c0.5,0.6,0.8,1.2,1.2,1.9L245.8,362.3z" class="st4"/><path d="M920.6,400.7c-2.1-1.3-4.2-2.5-6.4-3.4c-2.2-1-4.5-1.6-6.8-2.1l-1.7-0.3l-1.8-0.1c-0.6-0.1-1.2,0-1.8,0l-0.9,0	c-0.3,0-0.6,0-0.9,0.1c-0.6,0.1-1.2,0.1-1.7,0.2l-1.7,0.2l-1.7,0.4c-0.6,0.1-1.1,0.3-1.7,0.5c-0.6,0.1-1.1,0.3-1.7,0.5l-0.8,0.3	c-0.3,0.1-0.5,0.2-0.8,0.3c-1.1,0.4-2.1,0.9-3.2,1.4c-2.1,1.1-4.1,2.3-6,3.7c-1.9,1.4-3.8,2.8-5.5,4.4c-0.9,0.8-1.7,1.6-2.5,2.5	c-0.8,0.8-1.6,1.7-2.3,2.6l-1.3,1.6l-1.4-1.5c-0.3-0.3-0.7-0.7-1.1-1.1c-0.4-0.4-0.8-0.7-1.3-1.1c-0.9-0.7-1.8-1.3-2.7-1.9	c-1.9-1.2-3.9-2.1-6-2.7c-2.1-0.6-4.3-1-6.4-1c-2.2,0-4.4,0.4-6.5,1c-1.1,0.3-2.1,0.8-3.1,1.2c-1,0.5-2,1-3,1.6	c-2,1.1-3.8,2.6-5.6,4c-3.5,3-6.6,6.5-9.6,10.1c2.3-4.1,5.1-7.9,8.4-11.4c1.7-1.7,3.5-3.3,5.5-4.7c1-0.7,2-1.3,3.1-1.9	c1.1-0.5,2.2-1.1,3.4-1.5c2.3-0.9,4.8-1.4,7.3-1.5c2.5-0.1,5,0.2,7.5,0.9c2.4,0.7,4.7,1.7,6.9,3c1.1,0.6,2.1,1.3,3.1,2.1	c0.5,0.4,1,0.8,1.4,1.2c0.5,0.4,0.9,0.8,1.4,1.4l-2.7,0.1c0.8-1,1.7-1.9,2.6-2.8c0.9-0.9,1.8-1.8,2.7-2.6c1.9-1.7,3.8-3.2,5.9-4.6	c2.1-1.4,4.3-2.7,6.5-3.7c1.1-0.5,2.3-1,3.5-1.4c0.3-0.1,0.6-0.2,0.9-0.3l0.9-0.3c0.6-0.2,1.2-0.4,1.8-0.5c4.9-1.2,10.1-1.1,15,0.2	c2.4,0.7,4.7,1.6,6.8,2.9c1.1,0.6,2.1,1.3,3.1,2c0.5,0.3,1,0.7,1.4,1.1L920.6,400.7z" class="st4"/></svg>